ISO-10303-21;
HEADER;
FILE_DESCRIPTION(('STEP AP214'),'1');
FILE_NAME('cylinder1.stp','2023-08-04T01:58:09',(' '),(' '),'Spatial InterOp 3D',' ',' ');
FILE_SCHEMA(('AUTOMOTIVE_DESIGN { 1 0 10303 214 1 1 1 1 }'));
ENDSEC;
DATA;
#1=MECHANICAL_DESIGN_GEOMETRIC_PRESENTATION_REPRESENTATION(' ',(#10),#6);
#2=PRODUCT_DEFINITION_CONTEXT('',#11,'design');
#3=APPLICATION_PROTOCOL_DEFINITION('INTERNATIONAL STANDARD','automotive_design',1994,#11);
#4=PRODUCT_CATEGORY_RELATIONSHIP('NONE','NONE',#12,#13);
#5=SHAPE_DEFINITION_REPRESENTATION(#14,#15);
#6= (GEOMETRIC_REPRESENTATION_CONTEXT(3)GLOBAL_UNCERTAINTY_ASSIGNED_CONTEXT((#18))GLOBAL_UNIT_ASSIGNED_CONTEXT((#20,#21,#22))REPRESENTATION_CONTEXT('NONE','WORKSPACE'));
#10=STYLED_ITEM('',(#24),#25);
#11=APPLICATION_CONTEXT(' ');
#12=PRODUCT_CATEGORY('part','NONE');
#13=PRODUCT_RELATED_PRODUCT_CATEGORY('detail',' ',(#26));
#14=PRODUCT_DEFINITION_SHAPE('NONE','NONE',#27);
#15=ADVANCED_BREP_SHAPE_REPRESENTATION('\X2\5B9E4F53\X0\',(#25,#28),#6);
#18=UNCERTAINTY_MEASURE_WITH_UNIT(LENGTH_MEASURE(1.0E-08),#20,'','');
#20= (CONVERSION_BASED_UNIT('METRE',#31)LENGTH_UNIT()NAMED_UNIT(#34));
#21= (NAMED_UNIT(#36)PLANE_ANGLE_UNIT()SI_UNIT($,.RADIAN.));
#22= (NAMED_UNIT(#36)SOLID_ANGLE_UNIT()SI_UNIT($,.STERADIAN.));
#24=PRESENTATION_STYLE_ASSIGNMENT((#42));
#25=BREP_WITH_VOIDS('\X2\5B9E4F53\X0\',#43,(#44));
#26=PRODUCT('\X2\5B9E4F53\X0\','','PART--DESC',(#45));
#27=PRODUCT_DEFINITION('','NONE',#46,#2);
#28=AXIS2_PLACEMENT_3D('',#47,#48,#49);
#31=LENGTH_MEASURE_WITH_UNIT(LENGTH_MEASURE(1.0),#50);
#34=DIMENSIONAL_EXPONENTS(1.0,0.0,0.0,0.0,0.0,0.0,0.0);
#36=DIMENSIONAL_EXPONENTS(0.0,0.0,0.0,0.0,0.0,0.0,0.0);
#42=SURFACE_STYLE_USAGE(.BOTH.,#51);
#43=CLOSED_SHELL('',(#52,#53,#54,#55,#56,#57));
#44=ORIENTED_CLOSED_SHELL('',*,#58,.T.);
#45=PRODUCT_CONTEXT('',#11,'mechanical');
#46=PRODUCT_DEFINITION_FORMATION_WITH_SPECIFIED_SOURCE(' ','NONE',#26,.NOT_KNOWN.);
#47=CARTESIAN_POINT('',(0.0,0.0,0.0));
#48=DIRECTION('',(0.0,0.0,1.0));
#49=DIRECTION('',(1.0,0.0,0.0));
#50= (NAMED_UNIT(#34)LENGTH_UNIT()SI_UNIT($,.METRE.));
#51=SURFACE_SIDE_STYLE('',(#60));
#52=ADVANCED_FACE('0:1329',(#61),#62,.F.);
#53=ADVANCED_FACE('0:1314',(#63),#64,.T.);
#54=ADVANCED_FACE('0:1317',(#65),#66,.T.);
#55=ADVANCED_FACE('0:1320',(#67),#68,.T.);
#56=ADVANCED_FACE('0:1323',(#69),#70,.T.);
#57=ADVANCED_FACE('0:1326',(#71),#72,.T.);
#58=CLOSED_SHELL('',(#73,#74,#75,#76,#77,#78,#79,#80,#81,#82,#83));
#60=SURFACE_STYLE_FILL_AREA(#84);
#61=FACE_OUTER_BOUND('',#85,.T.);
#62=PLANE('',#86);
#63=FACE_OUTER_BOUND('',#87,.T.);
#64=PLANE('',#88);
#65=FACE_OUTER_BOUND('',#89,.T.);
#66=PLANE('',#90);
#67=FACE_OUTER_BOUND('',#91,.T.);
#68=PLANE('',#92);
#69=FACE_OUTER_BOUND('',#93,.T.);
#70=PLANE('',#94);
#71=FACE_OUTER_BOUND('',#95,.T.);
#72=PLANE('',#96);
#73=ADVANCED_FACE('1:21',(#97),#98,.F.);
#74=ADVANCED_FACE('1:12',(#99),#100,.F.);
#75=ADVANCED_FACE('1:9',(#101),#102,.F.);
#76=ADVANCED_FACE('1:3',(#103),#104,.F.);
#77=ADVANCED_FACE('1:3',(#105),#106,.F.);
#78=ADVANCED_FACE('1:6',(#107),#108,.F.);
#79=ADVANCED_FACE('1:9',(#109),#110,.F.);
#80=ADVANCED_FACE('1:12',(#111),#112,.F.);
#81=ADVANCED_FACE('1:15',(#113,#114),#115,.F.);
#82=ADVANCED_FACE('1:18',(#116),#117,.F.);
#83=ADVANCED_FACE('1:21',(#118),#119,.F.);
#84=FILL_AREA_STYLE('',(#120));
#85=EDGE_LOOP('',(#121,#122,#123,#124));
#86=AXIS2_PLACEMENT_3D('',#125,#126,#127);
#87=EDGE_LOOP('',(#128,#129,#130,#131));
#88=AXIS2_PLACEMENT_3D('',#132,#133,#134);
#89=EDGE_LOOP('',(#135,#136,#137,#138));
#90=AXIS2_PLACEMENT_3D('',#139,#140,#141);
#91=EDGE_LOOP('',(#142,#143,#144,#145));
#92=AXIS2_PLACEMENT_3D('',#146,#147,#148);
#93=EDGE_LOOP('',(#149,#150,#151,#152));
#94=AXIS2_PLACEMENT_3D('',#153,#154,#155);
#95=EDGE_LOOP('',(#156,#157,#158,#159));
#96=AXIS2_PLACEMENT_3D('',#160,#161,#162);
#97=FACE_OUTER_BOUND('',#163,.T.);
#98=CYLINDRICAL_SURFACE('',#164,0.00100000000000001);
#99=FACE_OUTER_BOUND('',#165,.T.);
#100=CYLINDRICAL_SURFACE('',#166,0.00299999999999999);
#101=FACE_OUTER_BOUND('',#167,.T.);
#102=CONICAL_SURFACE('',#168,0.00871428571428573,0.0801848473013158);
#103=FACE_OUTER_BOUND('',#169,.T.);
#104=CYLINDRICAL_SURFACE('',#170,0.01);
#105=FACE_OUTER_BOUND('',#171,.T.);
#106=CYLINDRICAL_SURFACE('',#172,0.01);
#107=FACE_OUTER_BOUND('',#173,.T.);
#108=PLANE('',#174);
#109=FACE_OUTER_BOUND('',#175,.T.);
#110=CONICAL_SURFACE('',#176,0.00871428571428573,0.0801848473013158);
#111=FACE_OUTER_BOUND('',#177,.T.);
#112=CYLINDRICAL_SURFACE('',#178,0.00299999999999999);
#113=FACE_OUTER_BOUND('',#179,.T.);
#114=FACE_BOUND('',#180,.T.);
#115=PLANE('',#181);
#116=FACE_OUTER_BOUND('',#182,.T.);
#117=PLANE('',#183);
#118=FACE_OUTER_BOUND('',#184,.T.);
#119=CYLINDRICAL_SURFACE('',#185,0.00100000000000001);
#120=FILL_AREA_STYLE_COLOUR('',#186);
#121=ORIENTED_EDGE('',*,*,#187,.F.);
#122=ORIENTED_EDGE('',*,*,#188,.F.);
#123=ORIENTED_EDGE('',*,*,#189,.F.);
#124=ORIENTED_EDGE('',*,*,#190,.F.);
#125=CARTESIAN_POINT('',(-0.0326,0.15,0.037));
#126=DIRECTION('',(-1.13649664191887E-18,-1.0,0.0));
#127=DIRECTION('',(-1.0,1.13649664191887E-18,1.59163121512274E-18));
#128=ORIENTED_EDGE('',*,*,#191,.T.);
#129=ORIENTED_EDGE('',*,*,#192,.T.);
#130=ORIENTED_EDGE('',*,*,#189,.T.);
#131=ORIENTED_EDGE('',*,*,#193,.T.);
#132=CARTESIAN_POINT('',(-0.0326,0.0,0.187));
#133=DIRECTION('',(0.0,0.0,1.0));
#134=DIRECTION('',(-1.0,1.13649664191887E-18,-0.0));
#135=ORIENTED_EDGE('',*,*,#194,.T.);
#136=ORIENTED_EDGE('',*,*,#195,.F.);
#137=ORIENTED_EDGE('',*,*,#190,.T.);
#138=ORIENTED_EDGE('',*,*,#192,.F.);
#139=CARTESIAN_POINT('',(0.2674,-3.4094899257566E-19,0.037));
#140=DIRECTION('',(1.0,-1.13649664191887E-18,0.0));
#141=DIRECTION('',(-0.0,0.0,1.0));
#142=ORIENTED_EDGE('',*,*,#196,.T.);
#143=ORIENTED_EDGE('',*,*,#197,.F.);
#144=ORIENTED_EDGE('',*,*,#187,.T.);
#145=ORIENTED_EDGE('',*,*,#195,.T.);
#146=CARTESIAN_POINT('',(-0.0326,0.0,-0.113));
#147=DIRECTION('',(0.0,-0.0,-1.0));
#148=DIRECTION('',(1.0,-1.13649664191887E-18,0.0));
#149=ORIENTED_EDGE('',*,*,#198,.T.);
#150=ORIENTED_EDGE('',*,*,#193,.F.);
#151=ORIENTED_EDGE('',*,*,#188,.T.);
#152=ORIENTED_EDGE('',*,*,#197,.T.);
#153=CARTESIAN_POINT('',(-0.3326,3.4094899257566E-19,0.037));
#154=DIRECTION('',(-1.0,1.13649664191887E-18,-0.0));
#155=DIRECTION('',(0.0,-0.0,-1.0));
#156=ORIENTED_EDGE('',*,*,#191,.F.);
#157=ORIENTED_EDGE('',*,*,#198,.F.);
#158=ORIENTED_EDGE('',*,*,#196,.F.);
#159=ORIENTED_EDGE('',*,*,#194,.F.);
#160=CARTESIAN_POINT('',(-0.0326,-0.15,0.037));
#161=DIRECTION('',(-1.13649664191887E-18,-1.0,0.0));
#162=DIRECTION('',(-1.0,1.13649664191887E-18,1.59163121512274E-18));
#163=EDGE_LOOP('',(#199,#200,#201,#202,#203));
#164=AXIS2_PLACEMENT_3D('',#204,#205,#206);
#165=EDGE_LOOP('',(#207,#208,#209,#210));
#166=AXIS2_PLACEMENT_3D('',#211,#212,#213);
#167=EDGE_LOOP('',(#214,#215,#216,#217,#218,#219,#220,#221));
#168=AXIS2_PLACEMENT_3D('',#222,#223,#224);
#169=EDGE_LOOP('',(#225,#226,#227,#228,#229));
#170=AXIS2_PLACEMENT_3D('',#230,#231,#232);
#171=EDGE_LOOP('',(#233,#234,#235,#236,#237,#238,#239));
#172=AXIS2_PLACEMENT_3D('',#240,#241,#242);
#173=EDGE_LOOP('',(#243,#244,#245));
#174=AXIS2_PLACEMENT_3D('',#246,#247,#248);
#175=EDGE_LOOP('',(#249,#250,#251,#252,#253,#254));
#176=AXIS2_PLACEMENT_3D('',#255,#256,#257);
#177=EDGE_LOOP('',(#258,#259,#260,#261,#262,#263));
#178=AXIS2_PLACEMENT_3D('',#264,#265,#266);
#179=EDGE_LOOP('',(#267,#268,#269));
#180=EDGE_LOOP('',(#270,#271,#272));
#181=AXIS2_PLACEMENT_3D('',#273,#274,#275);
#182=EDGE_LOOP('',(#276,#277,#278));
#183=AXIS2_PLACEMENT_3D('',#279,#280,#281);
#184=EDGE_LOOP('',(#282,#283,#284,#285,#286,#287,#288));
#185=AXIS2_PLACEMENT_3D('',#289,#290,#291);
#186=COLOUR_RGB('',0.560784339904785,0.686274528503418,0.560784339904785);
#187=EDGE_CURVE('0:1359',#292,#293,#294,.T.);
#188=EDGE_CURVE('0:1365',#295,#292,#296,.T.);
#189=EDGE_CURVE('0:1338',#297,#295,#298,.T.);
#190=EDGE_CURVE('0:1350',#293,#297,#299,.T.);
#191=EDGE_CURVE('0:1332',#300,#301,#302,.T.);
#192=EDGE_CURVE('0:1335',#301,#297,#303,.T.);
#193=EDGE_CURVE('0:1341',#295,#300,#304,.T.);
#194=EDGE_CURVE('0:1344',#301,#305,#306,.T.);
#195=EDGE_CURVE('0:1347',#293,#305,#307,.T.);
#196=EDGE_CURVE('0:1353',#305,#308,#309,.T.);
#197=EDGE_CURVE('0:1356',#292,#308,#310,.T.);
#198=EDGE_CURVE('0:1362',#308,#300,#311,.T.);
#199=ORIENTED_EDGE('',*,*,#312,.F.);
#200=ORIENTED_EDGE('',*,*,#313,.T.);
#201=ORIENTED_EDGE('',*,*,#314,.F.);
#202=ORIENTED_EDGE('',*,*,#315,.F.);
#203=ORIENTED_EDGE('',*,*,#316,.F.);
#204=CARTESIAN_POINT('',(0.1124,-2.49366499671666E-18,0.037));
#205=DIRECTION('',(1.0,-2.24621445099313E-15,-2.01091998539356E-15));
#206=DIRECTION('',(2.99659066222006E-15,0.813826036051074,0.581108581114921));
#207=ORIENTED_EDGE('',*,*,#317,.F.);
#208=ORIENTED_EDGE('',*,*,#318,.T.);
#209=ORIENTED_EDGE('',*,*,#319,.F.);
#210=ORIENTED_EDGE('',*,*,#320,.F.);
#211=CARTESIAN_POINT('',(0.1144,1.12757025938492E-17,0.037));
#212=DIRECTION('',(1.0,-7.56022246056788E-16,1.75395505952075E-16));
#213=DIRECTION('',(5.13346754077084E-16,0.813826036051076,0.581108581114917));
#214=ORIENTED_EDGE('',*,*,#321,.F.);
#215=ORIENTED_EDGE('',*,*,#315,.T.);
#216=ORIENTED_EDGE('',*,*,#322,.T.);
#217=ORIENTED_EDGE('',*,*,#323,.T.);
#218=ORIENTED_EDGE('',*,*,#324,.F.);
#219=ORIENTED_EDGE('',*,*,#325,.F.);
#220=ORIENTED_EDGE('',*,*,#326,.F.);
#221=ORIENTED_EDGE('',*,*,#327,.F.);
#222=CARTESIAN_POINT('',(0.016,1.73472347597681E-18,0.037));
#223=DIRECTION('',(-1.0,-2.04483930146448E-16,3.08973491336197E-16));
#224=DIRECTION('',(4.99602553348854E-17,-0.900714814556648,-0.434410891712193));
#225=ORIENTED_EDGE('',*,*,#328,.F.);
#226=ORIENTED_EDGE('',*,*,#329,.T.);
#227=ORIENTED_EDGE('',*,*,#330,.F.);
#228=ORIENTED_EDGE('',*,*,#331,.T.);
#229=ORIENTED_EDGE('',*,*,#327,.T.);
#230=CARTESIAN_POINT('',(-0.0326,0.0,0.037));
#231=DIRECTION('',(-1.0,-1.32621320004763E-17,1.18729029977052E-17));
#232=DIRECTION('',(-1.76925141302453E-17,0.813826036051075,-0.581108581114919));
#233=ORIENTED_EDGE('',*,*,#328,.T.);
#234=ORIENTED_EDGE('',*,*,#326,.T.);
#235=ORIENTED_EDGE('',*,*,#325,.T.);
#236=ORIENTED_EDGE('',*,*,#332,.T.);
#237=ORIENTED_EDGE('',*,*,#330,.T.);
#238=ORIENTED_EDGE('',*,*,#333,.T.);
#239=ORIENTED_EDGE('',*,*,#334,.T.);
#240=CARTESIAN_POINT('',(-0.0326,0.0,0.037));
#241=DIRECTION('',(-1.0,-1.32621320004763E-17,1.18729029977052E-17));
#242=DIRECTION('',(-1.76925141302453E-17,0.813826036051075,-0.581108581114919));
#243=ORIENTED_EDGE('',*,*,#334,.F.);
#244=ORIENTED_EDGE('',*,*,#333,.F.);
#245=ORIENTED_EDGE('',*,*,#329,.F.);
#246=CARTESIAN_POINT('',(-0.163,0.0125,0.0245));
#247=DIRECTION('',(-1.0,0.0,0.0));
#248=DIRECTION('',(0.0,0.0,1.0));
#249=ORIENTED_EDGE('',*,*,#321,.T.);
#250=ORIENTED_EDGE('',*,*,#331,.F.);
#251=ORIENTED_EDGE('',*,*,#332,.F.);
#252=ORIENTED_EDGE('',*,*,#324,.T.);
#253=ORIENTED_EDGE('',*,*,#335,.T.);
#254=ORIENTED_EDGE('',*,*,#316,.T.);
#255=CARTESIAN_POINT('',(0.016,1.73472347597681E-18,0.037));
#256=DIRECTION('',(-1.0,-2.04483930146448E-16,3.08973491336197E-16));
#257=DIRECTION('',(4.99602553348854E-17,-0.900714814556648,-0.434410891712193));
#258=ORIENTED_EDGE('',*,*,#317,.T.);
#259=ORIENTED_EDGE('',*,*,#336,.F.);
#260=ORIENTED_EDGE('',*,*,#337,.F.);
#261=ORIENTED_EDGE('',*,*,#319,.T.);
#262=ORIENTED_EDGE('',*,*,#338,.T.);
#263=ORIENTED_EDGE('',*,*,#339,.T.);
#264=CARTESIAN_POINT('',(0.1144,1.12757025938492E-17,0.037));
#265=DIRECTION('',(1.0,-7.56022246056788E-16,1.75395505952075E-16));
#266=DIRECTION('',(5.13346754077084E-16,0.813826036051076,0.581108581114917));
#267=ORIENTED_EDGE('',*,*,#336,.T.);
#268=ORIENTED_EDGE('',*,*,#320,.T.);
#269=ORIENTED_EDGE('',*,*,#337,.T.);
#270=ORIENTED_EDGE('',*,*,#340,.F.);
#271=ORIENTED_EDGE('',*,*,#341,.F.);
#272=ORIENTED_EDGE('',*,*,#313,.F.);
#273=CARTESIAN_POINT('',(0.114,-0.00375,0.03325));
#274=DIRECTION('',(-1.0,0.0,0.0));
#275=DIRECTION('',(0.0,0.0,1.0));
#276=ORIENTED_EDGE('',*,*,#339,.F.);
#277=ORIENTED_EDGE('',*,*,#338,.F.);
#278=ORIENTED_EDGE('',*,*,#318,.F.);
#279=CARTESIAN_POINT('',(0.116,-0.00375,0.03325));
#280=DIRECTION('',(1.0,0.0,0.0));
#281=DIRECTION('',(0.0,1.0,0.0));
#282=ORIENTED_EDGE('',*,*,#312,.T.);
#283=ORIENTED_EDGE('',*,*,#335,.F.);
#284=ORIENTED_EDGE('',*,*,#323,.F.);
#285=ORIENTED_EDGE('',*,*,#322,.F.);
#286=ORIENTED_EDGE('',*,*,#314,.T.);
#287=ORIENTED_EDGE('',*,*,#341,.T.);
#288=ORIENTED_EDGE('',*,*,#340,.T.);
#289=CARTESIAN_POINT('',(0.1124,-2.49366499671666E-18,0.037));
#290=DIRECTION('',(1.0,-2.24621445099313E-15,-2.01091998539356E-15));
#291=DIRECTION('',(2.99659066222006E-15,0.813826036051074,0.581108581114921));
#292=VERTEX_POINT('',#342);
#293=VERTEX_POINT('',#343);
#294=LINE('',#344,#345);
#295=VERTEX_POINT('',#346);
#296=LINE('',#347,#348);
#297=VERTEX_POINT('',#349);
#298=LINE('',#350,#351);
#299=LINE('',#352,#353);
#300=VERTEX_POINT('',#354);
#301=VERTEX_POINT('',#355);
#302=LINE('',#356,#357);
#303=LINE('',#358,#359);
#304=LINE('',#360,#361);
#305=VERTEX_POINT('',#362);
#306=LINE('',#363,#364);
#307=LINE('',#365,#366);
#308=VERTEX_POINT('',#367);
#309=LINE('',#368,#369);
#310=LINE('',#370,#371);
#311=LINE('',#372,#373);
#312=EDGE_CURVE('',#374,#375,#376,.T.);
#313=EDGE_CURVE('1:39',#374,#377,#378,.T.);
#314=EDGE_CURVE('',#379,#377,#380,.T.);
#315=EDGE_CURVE('1:30',#381,#379,#382,.T.);
#316=EDGE_CURVE('1:30',#375,#381,#383,.T.);
#317=EDGE_CURVE('',#384,#385,#386,.T.);
#318=EDGE_CURVE('1:33',#384,#387,#388,.T.);
#319=EDGE_CURVE('',#389,#387,#390,.T.);
#320=EDGE_CURVE('1:36',#385,#389,#391,.T.);
#321=EDGE_CURVE('',#381,#392,#393,.T.);
#322=EDGE_CURVE('1:30',#379,#394,#395,.T.);
#323=EDGE_CURVE('1:30',#394,#396,#397,.T.);
#324=EDGE_CURVE('',#398,#396,#399,.T.);
#325=EDGE_CURVE('1:27',#400,#398,#401,.T.);
#326=EDGE_CURVE('1:27',#402,#400,#403,.T.);
#327=EDGE_CURVE('1:27',#392,#402,#404,.T.);
#328=EDGE_CURVE('',#405,#402,#406,.T.);
#329=EDGE_CURVE('1:24',#405,#407,#408,.T.);
#330=EDGE_CURVE('',#409,#407,#410,.T.);
#331=EDGE_CURVE('1:27',#409,#392,#411,.T.);
#332=EDGE_CURVE('1:27',#398,#409,#412,.T.);
#333=EDGE_CURVE('1:24',#407,#413,#414,.T.);
#334=EDGE_CURVE('1:24',#413,#405,#415,.T.);
#335=EDGE_CURVE('1:30',#396,#375,#416,.T.);
#336=EDGE_CURVE('1:36',#417,#385,#418,.T.);
#337=EDGE_CURVE('1:36',#389,#417,#419,.T.);
#338=EDGE_CURVE('1:33',#387,#420,#421,.T.);
#339=EDGE_CURVE('1:33',#420,#384,#422,.T.);
#340=EDGE_CURVE('1:39',#423,#374,#424,.T.);
#341=EDGE_CURVE('1:39',#377,#423,#425,.T.);
#342=CARTESIAN_POINT('',(-0.3326,0.15,-0.113));
#343=CARTESIAN_POINT('',(0.2674,0.15,-0.113));
#344=CARTESIAN_POINT('',(0.2674,0.15,-0.113));
#345=VECTOR('',#426,1.0);
#346=CARTESIAN_POINT('',(-0.3326,0.15,0.187));
#347=CARTESIAN_POINT('',(-0.3326,0.15,-0.113));
#348=VECTOR('',#427,1.0);
#349=CARTESIAN_POINT('',(0.2674,0.15,0.187));
#350=CARTESIAN_POINT('',(-0.3326,0.15,0.187));
#351=VECTOR('',#428,1.0);
#352=CARTESIAN_POINT('',(0.2674,0.15,0.187));
#353=VECTOR('',#429,1.0);
#354=CARTESIAN_POINT('',(-0.3326,-0.15,0.187));
#355=CARTESIAN_POINT('',(0.2674,-0.15,0.187));
#356=CARTESIAN_POINT('',(-0.3326,-0.15,0.187));
#357=VECTOR('',#430,1.0);
#358=CARTESIAN_POINT('',(0.2674,-3.4094899257566E-19,0.187));
#359=VECTOR('',#431,1.0);
#360=CARTESIAN_POINT('',(-0.3326,3.4094899257566E-19,0.187));
#361=VECTOR('',#432,1.0);
#362=CARTESIAN_POINT('',(0.2674,-0.15,-0.113));
#363=CARTESIAN_POINT('',(0.2674,-0.15,0.187));
#364=VECTOR('',#433,1.0);
#365=CARTESIAN_POINT('',(0.2674,-3.4094899257566E-19,-0.113));
#366=VECTOR('',#434,1.0);
#367=CARTESIAN_POINT('',(-0.3326,-0.15,-0.113));
#368=CARTESIAN_POINT('',(0.2674,-0.15,-0.113));
#369=VECTOR('',#435,1.0);
#370=CARTESIAN_POINT('',(-0.3326,3.4094899257566E-19,-0.113));
#371=VECTOR('',#436,1.0);
#372=CARTESIAN_POINT('',(-0.3326,-0.15,-0.113));
#373=VECTOR('',#437,1.0);
#374=VERTEX_POINT('',#438);
#375=VERTEX_POINT('',#439);
#376=LINE('',#440,#441);
#377=VERTEX_POINT('',#442);
#378=CIRCLE('',#443,0.001);
#379=VERTEX_POINT('',#444);
#380=LINE('',#445,#446);
#381=VERTEX_POINT('',#447);
#382=CIRCLE('',#448,0.001);
#383=CIRCLE('',#449,0.001);
#384=VERTEX_POINT('',#450);
#385=VERTEX_POINT('',#451);
#386=LINE('',#452,#453);
#387=VERTEX_POINT('',#454);
#388=CIRCLE('',#455,0.003);
#389=VERTEX_POINT('',#456);
#390=LINE('',#457,#458);
#391=CIRCLE('',#459,0.003);
#392=VERTEX_POINT('',#460);
#393=LINE('',#461,#462);
#394=VERTEX_POINT('',#463);
#395=CIRCLE('',#464,0.001);
#396=VERTEX_POINT('',#465);
#397=CIRCLE('',#466,0.001);
#398=VERTEX_POINT('',#467);
#399=LINE('',#468,#469);
#400=VERTEX_POINT('',#470);
#401=CIRCLE('',#471,0.01);
#402=VERTEX_POINT('',#472);
#403=CIRCLE('',#473,0.01);
#404=CIRCLE('',#474,0.01);
#405=VERTEX_POINT('',#475);
#406=LINE('',#476,#477);
#407=VERTEX_POINT('',#478);
#408=CIRCLE('',#479,0.01);
#409=VERTEX_POINT('',#480);
#410=LINE('',#481,#482);
#411=CIRCLE('',#483,0.01);
#412=CIRCLE('',#484,0.01);
#413=VERTEX_POINT('',#485);
#414=CIRCLE('',#486,0.01);
#415=CIRCLE('',#487,0.01);
#416=CIRCLE('',#488,0.001);
#417=VERTEX_POINT('',#489);
#418=CIRCLE('',#490,0.003);
#419=CIRCLE('',#491,0.003);
#420=VERTEX_POINT('',#492);
#421=CIRCLE('',#493,0.003);
#422=CIRCLE('',#494,0.003);
#423=VERTEX_POINT('',#495);
#424=CIRCLE('',#496,0.001);
#425=CIRCLE('',#497,0.001);
#426=DIRECTION('',(1.0,-1.13649664191887E-18,0.0));
#427=DIRECTION('',(-0.0,-0.0,-1.0));
#428=DIRECTION('',(-1.0,1.13649664191887E-18,0.0));
#429=DIRECTION('',(0.0,0.0,1.0));
#430=DIRECTION('',(1.0,-1.13649664191887E-18,0.0));
#431=DIRECTION('',(1.13649664191887E-18,1.0,-0.0));
#432=DIRECTION('',(-1.13649664191887E-18,-1.0,0.0));
#433=DIRECTION('',(0.0,0.0,-1.0));
#434=DIRECTION('',(-1.13649664191887E-18,-1.0,0.0));
#435=DIRECTION('',(-1.0,1.13649664191887E-18,0.0));
#436=DIRECTION('',(-1.13649664191887E-18,-1.0,0.0));
#437=DIRECTION('',(0.0,0.0,1.0));
#438=CARTESIAN_POINT('',(0.114,0.000813826036051075,0.0375811085811149));
#439=CARTESIAN_POINT('',(0.112,0.000813826036051077,0.0375811085811149));
#440=CARTESIAN_POINT('',(0.1124,0.000813826036051077,0.0375811085811149));
#441=VECTOR('',#498,1.0);
#442=CARTESIAN_POINT('',(0.114,-0.000813826036051073,0.0364188914188851));
#443=AXIS2_PLACEMENT_3D('',#499,#500,#501);
#444=CARTESIAN_POINT('',(0.112,-0.000813826036051071,0.0364188914188851));
#445=CARTESIAN_POINT('',(0.1124,-0.00081382603605108,0.0364188914188851));
#446=VECTOR('',#502,1.0);
#447=CARTESIAN_POINT('',(0.112,-0.000900714814556638,0.0365655891082878));
#448=AXIS2_PLACEMENT_3D('',#503,#504,#505);
#449=AXIS2_PLACEMENT_3D('',#506,#507,#508);
#450=CARTESIAN_POINT('',(0.116,0.00244147810815323,0.0387433257433447));
#451=CARTESIAN_POINT('',(0.114,0.00244147810815323,0.0387433257433447));
#452=CARTESIAN_POINT('',(0.1144,0.00244147810815323,0.0387433257433447));
#453=VECTOR('',#509,1.0);
#454=CARTESIAN_POINT('',(0.116,-0.00244147810815322,0.0352566742566552));
#455=AXIS2_PLACEMENT_3D('',#510,#511,#512);
#456=CARTESIAN_POINT('',(0.114,-0.00244147810815322,0.0352566742566552));
#457=CARTESIAN_POINT('',(0.1144,-0.0024414781081532,0.0352566742566553));
#458=VECTOR('',#513,1.0);
#459=AXIS2_PLACEMENT_3D('',#514,#515,#516);
#460=CARTESIAN_POINT('',(0.0,-0.00900714814556649,0.0326558910828781));
#461=CARTESIAN_POINT('',(0.016,-0.00784908624113652,0.0332144193722223));
#462=VECTOR('',#517,1.0);
#463=CARTESIAN_POINT('',(0.112,0.001,0.037));
#464=AXIS2_PLACEMENT_3D('',#518,#519,#520);
#465=CARTESIAN_POINT('',(0.112,0.000900714814556659,0.0374344108917122));
#466=AXIS2_PLACEMENT_3D('',#521,#522,#523);
#467=CARTESIAN_POINT('',(0.0,0.00900714814556648,0.0413441089171219));
#468=CARTESIAN_POINT('',(0.016,0.00784908624113652,0.0407855806277777));
#469=VECTOR('',#524,1.0);
#470=CARTESIAN_POINT('',(0.0,0.01,0.037));
#471=AXIS2_PLACEMENT_3D('',#525,#526,#527);
#472=CARTESIAN_POINT('',(0.0,0.00813826036051075,0.0311889141888508));
#473=AXIS2_PLACEMENT_3D('',#528,#529,#530);
#474=AXIS2_PLACEMENT_3D('',#531,#532,#533);
#475=CARTESIAN_POINT('',(-0.163,0.00813826036051075,0.0311889141888508));
#476=CARTESIAN_POINT('',(-0.0326,0.00813826036051075,0.0311889141888508));
#477=VECTOR('',#534,1.0);
#478=CARTESIAN_POINT('',(-0.163,-0.00813826036051075,0.0428110858111492));
#479=AXIS2_PLACEMENT_3D('',#535,#536,#537);
#480=CARTESIAN_POINT('',(0.0,-0.00813826036051075,0.0428110858111492));
#481=CARTESIAN_POINT('',(-0.0326,-0.00813826036051075,0.0428110858111492));
#482=VECTOR('',#538,1.0);
#483=AXIS2_PLACEMENT_3D('',#539,#540,#541);
#484=AXIS2_PLACEMENT_3D('',#542,#543,#544);
#485=CARTESIAN_POINT('',(-0.163,0.01,0.037));
#486=AXIS2_PLACEMENT_3D('',#545,#546,#547);
#487=AXIS2_PLACEMENT_3D('',#548,#549,#550);
#488=AXIS2_PLACEMENT_3D('',#551,#552,#553);
#489=CARTESIAN_POINT('',(0.114,0.003,0.037));
#490=AXIS2_PLACEMENT_3D('',#554,#555,#556);
#491=AXIS2_PLACEMENT_3D('',#557,#558,#559);
#492=CARTESIAN_POINT('',(0.116,0.003,0.037));
#493=AXIS2_PLACEMENT_3D('',#560,#561,#562);
#494=AXIS2_PLACEMENT_3D('',#563,#564,#565);
#495=CARTESIAN_POINT('',(0.114,0.001,0.037));
#496=AXIS2_PLACEMENT_3D('',#566,#567,#568);
#497=AXIS2_PLACEMENT_3D('',#569,#570,#571);
#498=DIRECTION('',(-1.0,2.24621445099313E-15,2.01091998539356E-15));
#499=CARTESIAN_POINT('',(0.114,0.0,0.037));
#500=DIRECTION('',(1.0,0.0,0.0));
#501=DIRECTION('',(0.0,1.0,0.0));
#502=DIRECTION('',(1.0,-2.24621445099313E-15,-2.01091998539356E-15));
#503=CARTESIAN_POINT('',(0.112,-1.0842021724855E-19,0.037));
#504=DIRECTION('',(1.0,-7.08219232817436E-15,2.64407076636887E-14));
#505=DIRECTION('',(7.08219232817454E-15,1.0,-6.93889390390741E-15));
#506=CARTESIAN_POINT('',(0.112,-1.0842021724855E-19,0.037));
#507=DIRECTION('',(1.0,-7.08219232817436E-15,2.64407076636887E-14));
#508=DIRECTION('',(7.08219232817454E-15,1.0,-6.93889390390741E-15));
#509=DIRECTION('',(-1.0,7.56022246056788E-16,-1.75395505952075E-16));
#510=CARTESIAN_POINT('',(0.116,0.0,0.037));
#511=DIRECTION('',(1.0,0.0,0.0));
#512=DIRECTION('',(0.0,1.0,0.0));
#513=DIRECTION('',(1.0,-7.56022246056788E-16,1.75395505952075E-16));
#514=CARTESIAN_POINT('',(0.114,0.0,0.037));
#515=DIRECTION('',(1.0,0.0,0.0));
#516=DIRECTION('',(0.0,1.0,0.0));
#517=DIRECTION('',(-0.996786917257566,-0.0721463097318865,-0.0347958557335369));
#518=CARTESIAN_POINT('',(0.112,-1.0842021724855E-19,0.037));
#519=DIRECTION('',(1.0,-7.08219232817436E-15,2.64407076636887E-14));
#520=DIRECTION('',(7.08219232817454E-15,1.0,-6.93889390390741E-15));
#521=CARTESIAN_POINT('',(0.112,-1.0842021724855E-19,0.037));
#522=DIRECTION('',(1.0,-7.08219232817436E-15,2.64407076636887E-14));
#523=DIRECTION('',(7.08219232817454E-15,1.0,-6.93889390390741E-15));
#524=DIRECTION('',(0.996786917257566,-0.0721463097318862,-0.0347958557335374));
#525=CARTESIAN_POINT('',(0.0,0.0,0.037));
#526=DIRECTION('',(1.0,0.0,0.0));
#527=DIRECTION('',(0.0,1.0,0.0));
#528=CARTESIAN_POINT('',(0.0,0.0,0.037));
#529=DIRECTION('',(1.0,0.0,0.0));
#530=DIRECTION('',(0.0,1.0,0.0));
#531=CARTESIAN_POINT('',(0.0,0.0,0.037));
#532=DIRECTION('',(1.0,0.0,0.0));
#533=DIRECTION('',(0.0,1.0,0.0));
#534=DIRECTION('',(1.0,1.32621320004763E-17,-1.18729029977052E-17));
#535=CARTESIAN_POINT('',(-0.163,-1.73472347597681E-18,0.037));
#536=DIRECTION('',(-1.0,0.0,0.0));
#537=DIRECTION('',(0.0,1.0,0.0));
#538=DIRECTION('',(-1.0,-1.32621320004763E-17,1.18729029977052E-17));
#539=CARTESIAN_POINT('',(0.0,0.0,0.037));
#540=DIRECTION('',(1.0,0.0,0.0));
#541=DIRECTION('',(0.0,1.0,0.0));
#542=CARTESIAN_POINT('',(0.0,0.0,0.037));
#543=DIRECTION('',(1.0,0.0,0.0));
#544=DIRECTION('',(0.0,1.0,0.0));
#545=CARTESIAN_POINT('',(-0.163,-1.73472347597681E-18,0.037));
#546=DIRECTION('',(-1.0,0.0,0.0));
#547=DIRECTION('',(0.0,1.0,0.0));
#548=CARTESIAN_POINT('',(-0.163,-1.73472347597681E-18,0.037));
#549=DIRECTION('',(-1.0,0.0,0.0));
#550=DIRECTION('',(0.0,1.0,0.0));
#551=CARTESIAN_POINT('',(0.112,-1.0842021724855E-19,0.037));
#552=DIRECTION('',(1.0,-7.08219232817436E-15,2.64407076636887E-14));
#553=DIRECTION('',(7.08219232817454E-15,1.0,-6.93889390390741E-15));
#554=CARTESIAN_POINT('',(0.114,0.0,0.037));
#555=DIRECTION('',(1.0,0.0,0.0));
#556=DIRECTION('',(0.0,1.0,0.0));
#557=CARTESIAN_POINT('',(0.114,0.0,0.037));
#558=DIRECTION('',(1.0,0.0,0.0));
#559=DIRECTION('',(0.0,1.0,0.0));
#560=CARTESIAN_POINT('',(0.116,0.0,0.037));
#561=DIRECTION('',(1.0,0.0,0.0));
#562=DIRECTION('',(0.0,1.0,0.0));
#563=CARTESIAN_POINT('',(0.116,0.0,0.037));
#564=DIRECTION('',(1.0,0.0,0.0));
#565=DIRECTION('',(0.0,1.0,0.0));
#566=CARTESIAN_POINT('',(0.114,0.0,0.037));
#567=DIRECTION('',(1.0,0.0,0.0));
#568=DIRECTION('',(0.0,1.0,0.0));
#569=CARTESIAN_POINT('',(0.114,0.0,0.037));
#570=DIRECTION('',(1.0,0.0,0.0));
#571=DIRECTION('',(0.0,1.0,0.0));
#572=PRESENTATION_LAYER_ASSIGNMENT('','',(#73,#74,#75,#76,#77,#78,#79,#80,#81,#82,#83,#313,#315,#316,#318,#320,#322,#323,#325,#326,#327,#329,#331,#332,#333,#334,#335,#336,#337,#338,#339,#340,#341,#394,#400,#413,#417,#420,#423));
#573=PRESENTATION_LAYER_ASSIGNMENT('9','\X2\56FE5C42\X0\0',(#25));
ENDSEC;
END-ISO-10303-21;
//+
Field[1] = BoundaryLayer;
//+
Field[1].ExcludedSurfacesList = {7, 8, 9, 10, 11, 12, 13, 14, 15, 16};
//+
Field[2] = AutomaticMeshSizeField;
//+
Delete Field [2];
//+
Field[2] = Attractor;
//+
Delete Field [2];
//+
Field[2] = AttractorAnisoCurve;
//+
Delete Field [2];
//+
Field[2] = Attractor;
//+
Field[2].Sampling = 50;
//+
Field[2].SurfacesList = {7, 8, 9, 10, 11, 12, 13, 14, 15, 16};
//+
Field[3] = Attractor;
//+
Field[3].SurfacesList = {1, 2, 3, 4, 5, 6};
